# xmcd
#
# Track frame offsets: 
#        150
#        2336
#        6795
#        10073
#        15724
#        22917
#        33546
#        45545
#        49721
#        55825
#        60708
#        64046
#        69154
#        72805
#        75168
#        78515
#        82372
#        88749
#        91337
#        99832
#        105966
#        111987
#        118190
#        124694
#        130159
#        140550
#        141404
#        148574
#        156188
#        164637
#        168367
#        177998
#
# Disc length: 2464 seconds
#
# Revision: 0
# Processed by: cddbd v1.5.2PL0 Copyright (c) Steve Scherf et al.
# Submitted via: ExactAudioCopy v0.99pb5
#
DISCID=a0099e20
DTITLE=Михаил Казаков - Ленгстон Хьюз Черные блюзы
DYEAR=1977
DGENRE=Blues
TTITLE0=Вступление
TTITLE1=Я негр, я негр, я черный, как ночь...
TTITLE2=В одной руке трагедия...
TTITLE3=Блюз. Хэй, хэй, чем песня...
TTITLE4=Был белый мой старик...
TTITLE5=Блюз. Приди, давай побродим ночью...
TTITLE6=Гулко звучат тамтамы...
TTITLE7=Скотина я, скотина...
TTITLE8=Когда я жил дома...
TTITLE9=Надел сапог не на ту ногу...
TTITLE10=Копаю землю день-деньской...
TTITLE11=Меня покинул мой милый...
TTITLE12=Пошла я к милому и говорю...
TTITLE13=Я приехал на Север...
TTITLE14=Пойду-ка я потанцую...
TTITLE15=Вечером выпил я крепко...
TTITLE16=Я крикну: "Эй"...
TTITLE17=Кино. Рузвельт. Ренесанс...
TTITLE18=Блюз. Возьму Гарлемскую ночь...
TTITLE19=Будем знакомы, Джонсон...
TTITLE20=Разговор с переписчиком...
TTITLE21=Где же тот сахар...
TTITLE22=Два раза была я замужем...
TTITLE23=Не хочу, чтобы дочка моя...
TTITLE24=Блюз. Белые клавиши, черные руки...
TTITLE25=Старуха моя, глядь, опять...
TTITLE26=Когда я умру...
TTITLE27=Я такой же, как вы...
TTITLE28=Стукнет мне 91...
TTITLE29=Вы украли блюзы мои...
TTITLE30=Если б я был композитором...
TTITLE31=Хочу увидеть мир...
EXTD=
EXTT0=
EXTT1=
EXTT2=
EXTT3=
EXTT4=
EXTT5=
EXTT6=
EXTT7=
EXTT8=
EXTT9=
EXTT10=
EXTT11=
EXTT12=
EXTT13=
EXTT14=
EXTT15=
EXTT16=
EXTT17=
EXTT18=
EXTT19=
EXTT20=
EXTT21=
EXTT22=
EXTT23=
EXTT24=
EXTT25=
EXTT26=
EXTT27=
EXTT28=
EXTT29=
EXTT30=
EXTT31=
PLAYORDER=
